<svg xmlns="http://www.w3.org/2000/svg" width="81" height="44" fill="none"><path fill="#52616B" d="M77.064.594C79.244.594 81 2.353 81 4.536V30.71a3.932 3.932 0 0 1-3.937 3.943 3.932 3.932 0 0 1-3.937-3.943V4.536A3.932 3.932 0 0 1 77.064.594zM64.322 17.083h-4.381c-2.095 0-3.937 1.59-4.064 3.688a3.942 3.942 0 0 0 3.937 4.196c.423 0 .72.403.593.806-.36 1.123-1.249 2.013-2.434 2.31-1.1.297-2.286.445-3.535.445-2.138 0-4.042-.466-5.715-1.378a9.991 9.991 0 0 1-3.915-3.878c-.931-1.653-1.418-3.54-1.418-5.638 0-2.14.465-4.048 1.418-5.701a9.543 9.543 0 0 1 3.937-3.837c1.693-.911 3.619-1.356 5.778-1.356 2.497 0 4.72.678 6.688 2.035 1.249.869 2.942.847 4.148-.085 1.863-1.463 1.757-4.303-.169-5.596a16.931 16.931 0 0 0-2.942-1.568C59.856.509 57.148 0 54.163 0c-3.556 0-6.773.763-9.63 2.268-2.858 1.505-5.08 3.603-6.689 6.273-1.608 2.67-2.412 5.702-2.412 9.072 0 3.37.804 6.4 2.412 9.071 1.61 2.67 3.81 4.769 6.625 6.274 2.815 1.504 5.99 2.267 9.525 2.267 2.455 0 4.91-.381 7.344-1.123.021 0 .042-.021.064-.021 3.788-1.187 6.35-4.727 6.35-8.711v-4.832a3.422 3.422 0 0 0-3.43-3.455zM31.473 4.472v26.281a3.9 3.9 0 0 1-3.894 3.9h-.741a3.922 3.922 0 0 1-3.006-1.42l-12.91-15.769c-.974-1.186-2.858-.508-2.858 1.018v12.271a3.9 3.9 0 0 1-3.894 3.9 3.9 3.9 0 0 1-3.895-3.9V4.473A3.882 3.882 0 0 1 4.17.592h.783c1.164 0 2.265.53 3.005 1.42l12.869 15.748c.974 1.166 2.878.488 2.878-1.017V4.472A3.9 3.9 0 0 1 27.6.572a3.91 3.91 0 0 1 3.873 3.9zM0 40.482h.635v3.476H0v-3.476zM5.97 40.482v3.476h-.53l-1.905-2.352v2.352H2.9v-3.476h.53l1.926 2.353v-2.353h.613zM8.889 41.033H7.746v-.55h2.942v.55H9.524v2.925h-.635v-2.925zM15.07 43.407v.551h-2.603v-3.476h2.54v.551h-1.884v.912h1.672v.53h-1.672v.953h1.947v-.02zM19.345 43.958l-.72-1.017h-.91v1.017h-.635v-3.476h1.44c.296 0 .57.043.782.149.233.106.403.233.508.424.127.19.17.402.17.657 0 .254-.064.487-.19.678a1.11 1.11 0 0 1-.551.424l.804 1.144h-.698zm-.233-2.755c-.148-.127-.36-.17-.635-.17h-.762v1.378h.762c.275 0 .487-.064.635-.19.148-.128.212-.297.212-.51 0-.211-.064-.38-.212-.508zM25.08 40.482v3.476h-.528l-1.905-2.352v2.352h-.635v-3.476h.529l1.926 2.353v-2.353h.614zM29.906 43.407v.551h-2.603v-3.476h2.54v.551h-1.905v.912h1.672v.53h-1.672v.953h1.968v-.02zM32.616 41.033h-1.143v-.55h2.942v.55h-1.143v2.925h-.635v-2.925h-.021zM39.516 43.767a1.773 1.773 0 0 1-.678-.636c-.169-.275-.233-.572-.233-.911 0-.34.085-.636.233-.912.17-.275.381-.487.678-.635.275-.149.613-.233.952-.233.36 0 .677.084.952.233.276.148.508.36.678.635.17.276.233.573.233.912 0 .339-.085.657-.233.911-.17.276-.381.488-.678.636a2.042 2.042 0 0 1-.952.233c-.339 0-.656-.063-.952-.233zm1.587-.488c.19-.105.339-.254.444-.445.106-.19.149-.402.149-.635 0-.233-.043-.445-.148-.636a1.124 1.124 0 0 0-.445-.445 1.277 1.277 0 0 0-.635-.149c-.233 0-.444.043-.635.149-.19.106-.339.254-.444.445-.106.19-.17.402-.17.636 0 .233.043.445.17.635.105.191.254.34.444.445.19.106.402.149.635.149.233 0 .444-.042.635-.148zM44.977 41.012v1.06h1.672v.551h-1.672v1.335h-.635v-3.476h2.54v.551h-1.905v-.02zM54.522 40.482v3.476h-.635v-1.483h-1.799v1.483h-.635v-3.476h.635v1.442h1.8v-1.442h.634zM57.125 43.598c-.275-.276-.402-.657-.402-1.166v-1.95h.635v1.93c0 .677.296 1.017.889 1.017.592 0 .889-.34.889-1.018v-1.929h.634v1.971c0 .51-.127.89-.402 1.166-.275.276-.635.403-1.121.403-.487 0-.868-.148-1.122-.424zM65.147 43.958v-2.31l-1.143 1.908h-.296l-1.143-1.887v2.268h-.614v-3.455h.53l1.375 2.31 1.355-2.31h.529v3.476h-.593zM70.226 43.153h-1.735l-.339.805h-.656l1.566-3.476h.635l1.566 3.476h-.677l-.36-.805zm-.211-.509l-.656-1.526-.656 1.526h1.312zM76.067 40.482v3.476h-.53l-1.904-2.352v2.352h-.635v-3.476h.53l1.925 2.353v-2.353h.614zM78.587 43.895c-.254-.085-.445-.17-.593-.297l.233-.509c.148.106.317.212.53.276.21.063.422.106.613.106.254 0 .444-.043.571-.127.127-.085.19-.191.19-.318a.35.35 0 0 0-.105-.255c-.063-.063-.17-.106-.275-.148a3.013 3.013 0 0 0-.445-.127 4.758 4.758 0 0 1-.635-.191 1.182 1.182 0 0 1-.423-.297c-.127-.127-.17-.318-.17-.55 0-.192.043-.361.149-.53.106-.149.254-.276.466-.382a2.03 2.03 0 0 1 .761-.148c.212 0 .424.02.636.084.211.043.38.127.529.233l-.212.51a3.377 3.377 0 0 0-.487-.213 1.919 1.919 0 0 0-.487-.063c-.254 0-.444.042-.571.127a.382.382 0 0 0-.19.339c0 .106.042.19.105.233.064.063.17.106.275.148.106.043.254.085.445.127.254.064.466.128.635.191.17.064.296.17.423.297.127.127.17.318.17.53 0 .19-.043.36-.149.53a1.224 1.224 0 0 1-.465.381 2.062 2.062 0 0 1-.784.149 3.12 3.12 0 0 1-.74-.106z"/></svg>