<svg xmlns="http://www.w3.org/2000/svg" width="182" height="40" fill="none"><g clip-path="url(#clip0)"><path fill="#6F9AA8" d="M91.309 16.185v2.329h4v1.647h-4v3.212h-2v-8.835h6.55v1.647h-4.55zM100.526 18.956c0-2.65 2.001-4.579 4.746-4.579 2.707 0 4.746 1.928 4.746 4.579 0 2.65-2 4.578-4.746 4.578-2.745 0-4.746-1.928-4.746-4.578zm7.413 0c0-1.687-1.176-2.852-2.706-2.852s-2.706 1.165-2.706 2.852c0 1.686 1.176 2.851 2.706 2.851 1.569 0 2.706-1.165 2.706-2.851zM120.961 23.373l-1.687-2.45h-1.843v2.45h-2v-8.835h3.726c2.314 0 3.765 1.245 3.765 3.213 0 1.325-.667 2.29-1.765 2.811l1.922 2.852h-2.118v-.04zm-1.883-7.188h-1.647v3.092h1.647c1.216 0 1.844-.562 1.844-1.526s-.628-1.566-1.844-1.566zM141.552 14.538l-2.824 8.835h-2.157l-1.922-5.983-1.961 5.983h-2.118l-2.824-8.835h2.079l1.961 6.225 2.04-6.225h1.843l1.961 6.265 2-6.265h1.922zM152.025 21.486h-4.001l-.784 1.887h-2.04l3.844-8.835h1.961l3.883 8.835h-2.118l-.745-1.887zm-.628-1.566l-1.372-3.374-1.373 3.374h2.745zM165.243 23.373l-1.686-2.45H161.713v2.45h-2v-8.835h3.726c2.314 0 3.765 1.245 3.765 3.213 0 1.325-.666 2.29-1.765 2.811l1.922 2.852h-2.118v-.04zm-1.882-7.188h-1.648v3.092h1.648c1.215 0 1.843-.562 1.843-1.526s-.588-1.566-1.843-1.566zM172.773 14.538h3.923c2.824 0 4.785 1.727 4.785 4.418 0 2.69-1.922 4.417-4.785 4.417h-3.923v-8.835zm3.844 7.149c1.726 0 2.824-1.045 2.824-2.731 0-1.687-1.137-2.731-2.824-2.731h-1.843v5.462h1.843z"/><path fill="url(#paint0_linear)" d="M4.354 0C1.96 0 0 2.008 0 4.458v31.124c0 2.45 1.961 4.458 4.354 4.458H69.07c2.393 0 4.354-2.008 4.354-4.458v-7.35c0-.802.314-1.605.863-2.168l3.57-3.654c.98-1.004.98-2.691 0-3.695l-3.57-3.615c-.55-.562-.902-1.365-.902-2.168V4.458C73.385 2.008 71.424 0 69.03 0H4.354z"/><path fill="#fff" d="M63.462 7.189c1.608 0 2.903 1.325 2.903 2.972v19.678c0 1.647-1.295 2.972-2.903 2.972s-2.902-1.325-2.902-2.972V10.161c0-1.647 1.333-2.972 2.902-2.972zM54.087 19.599h-3.216c-1.53 0-2.903 1.204-2.981 2.77-.118 1.727 1.216 3.173 2.902 3.173.314 0 .51.321.432.603-.275.843-.902 1.526-1.765 1.727-.824.2-1.687.32-2.589.32-1.569 0-2.98-.36-4.197-1.043-1.215-.683-2.196-1.647-2.863-2.892-.706-1.245-1.02-2.65-1.02-4.257 0-1.606.353-3.052 1.02-4.297.706-1.245 1.648-2.209 2.903-2.892 1.255-.682 2.667-1.004 4.236-1.004 1.843 0 3.49.522 4.902 1.526a2.543 2.543 0 0 0 3.06-.08c1.373-1.084 1.294-3.213-.118-4.217a12.402 12.402 0 0 0-2.157-1.164c-1.804-.763-3.766-1.125-5.962-1.125-2.628 0-4.981.562-7.06 1.687-2.079 1.124-3.726 2.69-4.903 4.699-1.176 2.008-1.765 4.297-1.765 6.827 0 2.53.589 4.82 1.765 6.827a12.314 12.314 0 0 0 4.864 4.699c2.079 1.125 4.393 1.687 7.02 1.687 1.805 0 3.61-.281 5.374-.844h.04c2.784-.883 4.667-3.574 4.667-6.546V22.17c-.04-1.406-1.177-2.57-2.589-2.57zM29.965 10.12v19.76c0 1.606-1.294 2.931-2.863 2.931h-.549c-.863 0-1.647-.401-2.196-1.084l-9.492-11.848c-.706-.883-2.118-.361-2.118.763v9.238c0 1.606-1.294 2.931-2.863 2.931-1.57 0-2.863-1.325-2.863-2.931V10.12c0-1.606 1.294-2.931 2.863-2.931h.588c.863 0 1.687.401 2.197 1.084L22.12 20.12c.706.884 2.118.362 2.118-.763V10.12c0-1.606 1.294-2.931 2.863-2.931 1.57 0 2.863 1.325 2.863 2.931z"/></g><defs><linearGradient id="paint0_linear" x1="63.546" x2="8.585" y1="-7.483" y2="46.194" gradientUnits="userSpaceOnUse"><stop stop-color="#FFDB6A"/><stop offset=".001" stop-color="#FFDB6A"/><stop offset="1" stop-color="#009C8E"/></linearGradient><clipPath id="clip0"><path fill="#fff" d="M0 0h181.481v40H0V0z"/></clipPath></defs></svg>